<svg width="154" height="154" viewBox="0 0 154 154" fill="none" xmlns="http://www.w3.org/2000/svg">
  <path
    d="M77.0327 73.9954C73.0476 73.9954 69.8145 77.2288 69.8145 81.2139C70.1529 102.944 67.371 123.885 61.4688 144.826C60.6792 147.759 62.1455 154 68.4237 154C71.5816 154 74.4764 151.932 75.3784 148.737C79.4386 134.337 84.7017 111.028 84.2505 81.2139C84.2505 77.2288 81.0174 73.9954 77.0327 73.9954ZM76.7695 49.4077C58.3485 49.3701 45.4913 63.5439 45.7545 79.8228C45.9801 94.2221 44.6268 108.659 41.7321 122.682C40.905 126.592 43.4237 130.39 47.3336 131.217C51.2431 132.006 55.0402 129.525 55.8673 125.615C58.9876 110.539 60.416 95.0492 60.1905 79.5972C60.0777 71.7775 66.1679 63.8071 76.5439 63.8447C85.98 63.995 93.7618 71.4767 93.8746 80.5371C94.1378 94.974 93.0475 109.486 90.6791 123.697C90.04 127.608 92.7091 131.329 96.6565 132.006C102.634 132.984 104.702 127.457 104.927 126.029C107.408 110.99 108.574 95.6132 108.311 80.3115C108.047 63.5063 93.9122 49.6709 76.7695 49.4077ZM43.4989 43.4673C40.3786 40.9486 35.8675 41.3997 33.3112 44.4825C25.6418 53.9568 21.4691 65.9498 21.6568 78.1688C21.8448 89.4851 20.9427 100.839 18.9501 111.892C18.236 115.802 20.8299 119.562 24.7395 120.276C30.7921 121.329 32.8976 115.802 33.1608 114.449C35.3035 102.456 36.3187 90.1994 36.0931 77.9432C35.9803 68.9576 38.875 60.5361 44.514 53.6184C47.0328 50.4981 46.5816 45.9864 43.4989 43.4673ZM76.3935 24.707C71.7693 24.5942 67.1078 25.1205 62.6343 26.2109C58.762 27.1132 56.3561 31.0231 57.2581 34.8956C58.1981 38.7679 62.0703 41.1366 65.9799 40.2342C69.2882 39.4823 72.7093 39.1063 76.2055 39.1439C98.8745 39.4823 117.596 57.641 117.972 79.6348C118.123 91.0266 117.559 102.493 116.28 113.81C115.829 117.757 118.687 121.329 122.634 121.78C127.671 122.382 130.303 118.209 130.604 115.426C131.995 103.471 132.596 91.4402 132.408 79.4092C131.92 49.7085 106.807 25.1581 76.3935 24.707ZM152.22 61.2504C151.355 57.3406 147.559 54.8591 143.611 55.7239C139.701 56.5886 137.258 60.4609 138.123 64.3334C139.551 70.7999 139.589 75.6121 139.551 82.8682C139.513 86.8532 142.709 90.1242 146.694 90.1618H146.769C150.717 90.1618 153.95 86.966 153.987 82.981C154.025 76.3265 154.1 69.7096 152.22 61.2504ZM140.153 33.9557C125.491 13.0899 101.544 0.38247 76.0176 0.00649285C55.0402 -0.256691 35.6419 7.48813 21.2059 21.9626C7.25841 35.9108 -0.260219 54.4455 0.0405616 74.1834L0.00296395 80.6499C-0.109829 84.6353 3.01047 87.9436 6.99522 88.0564C7.07042 88.094 7.14561 88.094 7.22081 88.094C11.1307 88.094 14.3262 84.9737 14.439 81.0635L14.4765 73.9578C14.251 58.1674 20.2284 43.3172 31.3937 32.151C43.0853 20.4963 58.8748 14.2178 75.8296 14.4434C96.6941 14.7442 116.356 25.1581 128.348 42.2269C130.641 45.4976 135.115 46.2871 138.386 43.9937C141.656 41.7005 142.446 37.2264 140.153 33.9557Z"
    fill="url(#paint0_linear)"/>
  <defs>
    <linearGradient id="paint0_linear" x1="0" y1="0" x2="151.583" y2="154" gradientUnits="userSpaceOnUse">
      <stop stop-color="#21D4FD"/>
      <stop offset="1" stop-color="#B721FF"/>
    </linearGradient>
  </defs>
</svg>
